# xmcd CD database file
#
# Track frame offsets:
#	150
#	14800
#	23497
#	33540
#	46500
#	63817
#	81757
#	95037
#	110822
#	128802
#	144757
#	160840
#	173995
#	189287
#	198452
#	214237
#	233415
#	247007
#	263392
#	278842
#	288780
#
# Disc length: 4152 seconds
#
# Revision: 4
# Processed by: cddbd v1.5.2PL0 Copyright (c) Steve Scherf et al.
# Submitted via: CDex 1.91
#
DISCID=1a103615
DTITLE=Jazz Incredibles - Encore
DYEAR=1992
DGENRE=Jazz
TTITLE0=Bourbon Street Parade
TTITLE1=12th Street Rag
TTITLE2=You've Gotta See Yur Mama Every Night
TTITLE3=Black and White Rag
TTITLE4=Somewhere My Love
TTITLE5=Frankie and Johnnie
TTITLE6=Basin Street Blues
TTITLE7=After the Loving
TTITLE8=High Society
TTITLE9=I Had Someone Else Before I Had You
TTITLE10=Bohemia Rag
TTITLE11=Sugar Blues
TTITLE12=When Ragtime Rosie Ragged the Rosary
TTITLE13=Hungarian Dance No. 5
TTITLE14=Memories of You
TTITLE15=There'll Be Some Changes Made
TTITLE16=Spanish Eyes or Moon Over Naples
TTITLE17=Please Don't Talk About Me When I'm Gone
TTITLE18=Whispering
TTITLE19=The Lady Is A Tramp
TTITLE20=Tiger Rag
EXTD=YEAR: 1992
EXTT0=
EXTT1=
EXTT2=
EXTT3=
EXTT4=
EXTT5=
EXTT6=
EXTT7=
EXTT8=
EXTT9=
EXTT10=
EXTT11=
EXTT12=
EXTT13=
EXTT14=
EXTT15=
EXTT16=
EXTT17=
EXTT18=
EXTT19=
EXTT20=
PLAYORDER=
